<svg xmlns="http://www.w3.org/2000/svg" version="1.1" width="1565" height="1742">
<rect x="0" y="0" width="1565" height="1742" fill="#243937" />
<g transform="scale(6.804688) translate(0.5 0.5)">
<g transform="translate(124.913462 122.139392) rotate(23.531555) scale(229.000000 162.776423)"><ellipse fill="#e3ffde" fill-opacity="0.501961" cx="0" cy="0" rx="1" ry="1" /></g>
<ellipse fill="#ffffff" fill-opacity="0.501961" cx="127" cy="231" rx="98" ry="65" />
<g transform="translate(38.676466 184.676904) rotate(140.406437) scale(38.112352 17.731538)"><ellipse fill="#001b2a" fill-opacity="0.501961" cx="0" cy="0" rx="1" ry="1" /></g>
<polygon fill="#209444" fill-opacity="0.501961" points="245,-6 60,-16 236,230" />
<g transform="translate(108.431610 119.156488) rotate(270.839986) scale(65.114829 32.631552)"><ellipse fill="#ff755f" fill-opacity="0.501961" cx="0" cy="0" rx="1" ry="1" /></g>
<polygon fill="#000000" fill-opacity="0.501961" points="141.056954,58.759004,112.540512,41.260518,82.434733,49.420656,64.372572,75.793346" />
<polygon fill="#353a3e" fill-opacity="0.501961" points="59.770758,88.882970,103.015720,163.049031,106.343016,194.908732,87.961882,194.571050" />
<ellipse fill="#f3eaef" fill-opacity="0.501961" cx="150" cy="251" rx="75" ry="75" />
<polygon fill="#ffc0a3" fill-opacity="0.501961" points="124,62 143,190 83,75" />
<ellipse fill="#61cc84" fill-opacity="0.501961" cx="25" cy="78" rx="42" ry="91" />
<polygon fill="#1b040c" fill-opacity="0.501961" points="66.168249,121.248950,74.838349,129.817466,78.220886,56.659727,66.133514,64.300880" />
<polygon fill="#004141" fill-opacity="0.501961" points="9.405257,196.235981,17.851293,225.968751,70.275580,160.835695,24.196887,168.132129" />
<polygon fill="#d2cbe8" fill-opacity="0.501961" points="33,200 21,271 88,170" />
<polygon fill="#003f45" fill-opacity="0.501961" points="23.029195,271.000000,26.304180,189.979478,17.369060,236.655830,-16.000000,252.300828" />
<polygon fill="#419d61" fill-opacity="0.501961" points="127,143 223,199 245,-11" />
<polygon fill="#290000" fill-opacity="0.501961" points="142.501186,56.804477,142.856150,95.341503,138.062443,105.616744,130.651812,61.557180" />
<g transform="translate(82.331545 7.372155) rotate(108.475606) scale(31.834526 90.446431)"><ellipse fill="#65b381" fill-opacity="0.501961" cx="0" cy="0" rx="1" ry="1" /></g>
<polygon fill="#f3f0ff" fill-opacity="0.501961" points="158,172 120,193 146,151" />
<polygon fill="#24202f" fill-opacity="0.501961" points="110.422270,162.542162,79.823267,177.140061,84.403526,156.814573,83.700090,144.992892" />
<ellipse fill="#6ed397" fill-opacity="0.501961" cx="2" cy="199" rx="11" ry="47" />
<polygon fill="#64b886" fill-opacity="0.501961" points="56.604889,100.594938,36.711827,131.519957,89.537530,190.164928,82.951802,145.588992" />
<rect fill="#260906" fill-opacity="0.501961" x="79" y="51" width="57" height="14" />
<polygon fill="#004041" fill-opacity="0.501961" points="57,154 70,181 8,199" />
<polygon fill="#915741" fill-opacity="0.501961" points="118.732443,89.719857,159.743104,103.815072,48.011690,96.962407,98.633953,104.125542" />
<polygon fill="#eda086" fill-opacity="0.501961" points="73.220688,127.182654,105.496343,165.606915,153.729134,98.262616,95.475309,133.108223" />
<polygon fill="#ffcbb4" fill-opacity="0.501961" points="106.286747,101.256963,129.218209,67.482852,105.560399,61.772205,82.288067,89.100795" />
<polygon fill="#8f563d" fill-opacity="0.501961" points="138.133685,162.689667,145.297189,144.355091,93.004265,171.683006,135.404204,131.949115" />
<g transform="translate(55.917380 231.270415) rotate(185.565893) scale(12.489551 32.764057)"><ellipse fill="#f2edeb" fill-opacity="0.501961" cx="0" cy="0" rx="1" ry="1" /></g>
<polygon fill="#519d72" fill-opacity="0.501961" points="245,155 228,261 205,122" />
<polygon fill="#ac737b" fill-opacity="0.501961" points="120.785711,197.326887,79.633245,177.360785,100.847804,163.749124,96.409342,156.288836" />
<ellipse fill="#5a2b2b" fill-opacity="0.501961" cx="83" cy="98" rx="15" ry="5" />
<g transform="translate(143 112) rotate(20) scale(10 24)"><rect fill="#ff9c82" fill-opacity="0.501961" x="-0.5" y="-0.5" width="1" height="1" /></g>
<g transform="translate(18 244) rotate(353) scale(15 11)"><rect fill="#002b39" fill-opacity="0.501961" x="-0.5" y="-0.5" width="1" height="1" /></g>
<g transform="translate(95 126) rotate(299) scale(17 5)"><rect fill="#602322" fill-opacity="0.501961" x="-0.5" y="-0.5" width="1" height="1" /></g>
<g transform="translate(76.796406 26.627569) rotate(197.984441) scale(9.612304 53.967469)"><ellipse fill="#60b579" fill-opacity="0.501961" cx="0" cy="0" rx="1" ry="1" /></g>
<polygon fill="#a8acc0" fill-opacity="0.501961" points="41,193 45,271 22,229" />
<polygon fill="#63a47d" fill-opacity="0.501961" points="146.926203,70.568221,129.330451,51.195371,130.491042,30.147574,191.062616,43.601222" />
<polygon fill="#004847" fill-opacity="0.501961" points="45.841254,158.350848,16.261601,180.077700,14.676867,215.224074,63.095432,180.428754" />
<g transform="translate(183.596517 152.590091) rotate(223.119298) scale(47.610790 21.760034)"><ellipse fill="#529d73" fill-opacity="0.501961" cx="0" cy="0" rx="1" ry="1" /></g>
<polygon fill="#180601" fill-opacity="0.501961" points="121,48 146,92 142,65" />
</g>
</svg>