<svg xmlns="http://www.w3.org/2000/svg" version="1.1" width="1280" height="960">
<rect x="0" y="0" width="1280" height="960" fill="#345739" />
<g transform="scale(5.000000) translate(0.5 0.5)">
<g transform="translate(163.900214 59.045102) rotate(260.578548) scale(255.000000 102.959002)"><ellipse fill="#ccb8ea" fill-opacity="0.501961" cx="0" cy="0" rx="1" ry="1" /></g>
<g transform="translate(93.181444 0.000000) rotate(367.853544) scale(173.121635 54.868849)"><ellipse fill="#82b9ff" fill-opacity="0.501961" cx="0" cy="0" rx="1" ry="1" /></g>
<ellipse fill="#7d5939" fill-opacity="0.501961" cx="212" cy="143" rx="86" ry="86" />
<g transform="translate(66.884243 172.203561) rotate(262.834088) scale(25.253459 76.558671)"><ellipse fill="#9be181" fill-opacity="0.501961" cx="0" cy="0" rx="1" ry="1" /></g>
<polygon fill="#231714" fill-opacity="0.501961" points="20,25 103,74 39,165" />
<g transform="translate(249.311392 75.902177) rotate(168.781306) scale(52.786564 22.196628)"><ellipse fill="#010f36" fill-opacity="0.501961" cx="0" cy="0" rx="1" ry="1" /></g>
<polygon fill="#f2ffd3" fill-opacity="0.501961" points="149,207 94,123 60,130" />
<g transform="translate(181.547756 27.867262) rotate(164.130957) scale(86.552726 41.190206)"><ellipse fill="#8cb5ff" fill-opacity="0.501961" cx="0" cy="0" rx="1" ry="1" /></g>
<g transform="translate(62.506031 0.000000) rotate(19.291021) scale(77.102286 30.922267)"><ellipse fill="#3760df" fill-opacity="0.501961" cx="0" cy="0" rx="1" ry="1" /></g>
<g transform="translate(0.000000 48.186754) rotate(180.040829) scale(14.993374 71.693414)"><ellipse fill="#bc8977" fill-opacity="0.501961" cx="0" cy="0" rx="1" ry="1" /></g>
<g transform="translate(142.459649 128.548433) rotate(37.553116) scale(65.078964 33.803184)"><ellipse fill="#ad8967" fill-opacity="0.501961" cx="0" cy="0" rx="1" ry="1" /></g>
<ellipse fill="#3e2e32" fill-opacity="0.501961" cx="149" cy="85" rx="145" ry="7" />
<polygon fill="#e1ffc9" fill-opacity="0.501961" points="44.811957,169.617538,28.892859,152.627411,22.308520,153.371810,50.379578,207.000000" />
<g transform="translate(159.638709 0.000000) rotate(209.448822) scale(15.794283 14.363503)"><ellipse fill="#ffffff" fill-opacity="0.501961" cx="0" cy="0" rx="1" ry="1" /></g>
<g transform="translate(61.877861 148.286256) rotate(238.217679) scale(40.446608 19.784559)"><ellipse fill="#31693c" fill-opacity="0.501961" cx="0" cy="0" rx="1" ry="1" /></g>
<g transform="translate(183.493918 116.896904) rotate(275.119567) scale(18.567415 116.075560)"><ellipse fill="#ac9477" fill-opacity="0.501961" cx="0" cy="0" rx="1" ry="1" /></g>
<ellipse fill="#515d8a" fill-opacity="0.501961" cx="218" cy="63" rx="63" ry="10" />
<g transform="translate(81.842159 46.707407) rotate(190.835901) scale(33.417147 11.509773)"><ellipse fill="#c8d29c" fill-opacity="0.501961" cx="0" cy="0" rx="1" ry="1" /></g>
<ellipse fill="#281f27" fill-opacity="0.501961" cx="49" cy="77" rx="44" ry="26" />
<rect fill="#000000" fill-opacity="0.501961" x="241" y="158" width="15" height="14" />
<polygon fill="#2c7e25" fill-opacity="0.501961" points="120.010423,177.055382,83.012923,181.398382,147.468028,207.000000,122.546227,207.000000" />
<polygon fill="#ffffff" fill-opacity="0.501961" points="107,162 98,128 75,128" />
<g transform="translate(10 32) rotate(41) scale(30 42)"><rect fill="#a67661" fill-opacity="0.501961" x="-0.5" y="-0.5" width="1" height="1" /></g>
<g transform="translate(242.983662 18.114448) rotate(58.200393) scale(22.322234 47.010816)"><ellipse fill="#a4ceff" fill-opacity="0.501961" cx="0" cy="0" rx="1" ry="1" /></g>
<polygon fill="#bbbabc" fill-opacity="0.501961" points="210.554585,71.976879,177.834498,83.703442,44.735193,40.668783,163.886815,67.881685" />
<ellipse fill="#ffffff" fill-opacity="0.501961" cx="217" cy="177" rx="6" ry="5" />
<g transform="translate(166.087902 35.523163) rotate(175.276441) scale(59.765773 17.768046)"><ellipse fill="#6399f9" fill-opacity="0.501961" cx="0" cy="0" rx="1" ry="1" /></g>
<rect fill="#180f0d" fill-opacity="0.501961" x="202" y="183" width="24" height="9" />
<polygon fill="#fff2e7" fill-opacity="0.501961" points="134,69 99,39 112,67" />
<polygon fill="#aef29d" fill-opacity="0.501961" points="14.993295,184.905193,19.312769,148.491211,65.860215,182.021418,8.937526,155.624888" />
<g transform="translate(115 81) rotate(191) scale(43 27)"><rect fill="#8d6953" fill-opacity="0.501961" x="-0.5" y="-0.5" width="1" height="1" /></g>
<g transform="translate(74.918425 50.460168) rotate(215.856959) scale(16.781931 4.734099)"><ellipse fill="#e6ffd4" fill-opacity="0.501961" cx="0" cy="0" rx="1" ry="1" /></g>
<polygon fill="#5b7c5c" fill-opacity="0.501961" points="58.925949,18.518255,83.264438,43.250785,7.850691,23.349490,55.006149,52.451573" />
<polygon fill="#333e34" fill-opacity="0.501961" points="-16.000000,143.075880,27.559787,151.592679,61.000532,173.971229,75.697445,54.142150" />
<polygon fill="#a7ff8b" fill-opacity="0.501961" points="67,144 89,146 86,100" />
<polygon fill="#235832" fill-opacity="0.501961" points="14.480716,137.664461,17.186437,180.947916,-1.381063,207.000000,32.684512,184.473017" />
<polygon fill="#181b22" fill-opacity="0.501961" points="157.727138,207.000000,152.361051,178.381367,175.855683,179.483314,139.023820,207.000000" />
<polygon fill="#f7ffd2" fill-opacity="0.501961" points="7.584204,207.000000,4.348041,182.372080,-16.000000,135.310479,-15.106898,191.590858" />
<polygon fill="#49588f" fill-opacity="0.501961" points="225,47 191,78 271,41" />
<g transform="translate(159 0) rotate(314) scale(20 31)"><rect fill="#ffffff" fill-opacity="0.501961" x="-0.5" y="-0.5" width="1" height="1" /></g>
</g>
</svg>