<svg xmlns="http://www.w3.org/2000/svg" version="1.1" width="4032" height="3024">
<rect x="0" y="0" width="4032" height="3024" fill="#46443c" />
<g transform="scale(15.750000) translate(0.5 0.5)">
<g transform="translate(66.612491 32.091871) rotate(303.238087) scale(255.000000 96.450465)"><ellipse fill="#b3bcbf" fill-opacity="0.501961" cx="0" cy="0" rx="1" ry="1" /></g>
<g transform="translate(200.874595 5.093477) rotate(275.775014) scale(12.292728 99.088547)"><ellipse fill="#f5faff" fill-opacity="0.501961" cx="0" cy="0" rx="1" ry="1" /></g>
<g transform="translate(35 3) rotate(67) scale(28 81)"><rect fill="#ffffff" fill-opacity="0.501961" x="-0.5" y="-0.5" width="1" height="1" /></g>
<ellipse fill="#8f9084" fill-opacity="0.501961" cx="213" cy="123" rx="78" ry="78" />
<g transform="translate(20.382964 158.157989) rotate(202.663556) scale(70.200937 36.297662)"><ellipse fill="#cdd5df" fill-opacity="0.501961" cx="0" cy="0" rx="1" ry="1" /></g>
<g transform="translate(123.339277 37.276239) rotate(184.812767) scale(102.382025 22.057792)"><ellipse fill="#26221b" fill-opacity="0.501961" cx="0" cy="0" rx="1" ry="1" /></g>
<g transform="translate(109.674448 139.512025) rotate(301.197024) scale(24.693630 67.342568)"><ellipse fill="#1d2016" fill-opacity="0.501961" cx="0" cy="0" rx="1" ry="1" /></g>
<g transform="translate(130.807802 93.867766) rotate(82.306396) scale(12.692496 36.974971)"><ellipse fill="#d8d6ba" fill-opacity="0.501961" cx="0" cy="0" rx="1" ry="1" /></g>
<polygon fill="#bdc2d0" fill-opacity="0.501961" points="254,97 209,57 267,45" />
<g transform="translate(212.314876 116.922755) rotate(58.417593) scale(58.892842 15.341498)"><ellipse fill="#253428" fill-opacity="0.501961" cx="0" cy="0" rx="1" ry="1" /></g>
<g transform="translate(27.667960 4.079327) rotate(253.018430) scale(13.358990 107.344194)"><ellipse fill="#ffffff" fill-opacity="0.501961" cx="0" cy="0" rx="1" ry="1" /></g>
<rect fill="#e6ae9d" fill-opacity="0.501961" x="101" y="18" width="14" height="59" />
<g transform="translate(219.183871 186.264537) rotate(291.667727) scale(22.220174 51.450298)"><ellipse fill="#aca291" fill-opacity="0.501961" cx="0" cy="0" rx="1" ry="1" /></g>
<g transform="translate(53.610873 57.674005) rotate(91.862649) scale(14.493933 58.743421)"><ellipse fill="#51523e" fill-opacity="0.501961" cx="0" cy="0" rx="1" ry="1" /></g>
<g transform="translate(141.233640 39.898233) rotate(95.326128) scale(18.805170 28.963469)"><ellipse fill="#121e1a" fill-opacity="0.501961" cx="0" cy="0" rx="1" ry="1" /></g>
<g transform="translate(197.959989 129.364786) rotate(239.568513) scale(13.396031 5.924611)"><ellipse fill="#ffe2bd" fill-opacity="0.501961" cx="0" cy="0" rx="1" ry="1" /></g>
<g transform="translate(200.661988 30.663920) rotate(271.102244) scale(26.505011 28.972440)"><ellipse fill="#3d484a" fill-opacity="0.501961" cx="0" cy="0" rx="1" ry="1" /></g>
<g transform="translate(244.358325 0.000000) rotate(154.838028) scale(19.540694 29.217010)"><ellipse fill="#e0e4eb" fill-opacity="0.501961" cx="0" cy="0" rx="1" ry="1" /></g>
<polygon fill="#ebd5c2" fill-opacity="0.501961" points="22,8 24,47 -10,60" />
<ellipse fill="#a8bfc8" fill-opacity="0.501961" cx="174" cy="62" rx="62" ry="4" />
<g transform="translate(88 11) rotate(342) scale(35 11)"><rect fill="#0c080e" fill-opacity="0.501961" x="-0.5" y="-0.5" width="1" height="1" /></g>
<ellipse fill="#b1bcc0" fill-opacity="0.501961" cx="56" cy="28" rx="3" ry="92" />
<g transform="translate(56 185) rotate(153) scale(66 15)"><rect fill="#5e5d55" fill-opacity="0.501961" x="-0.5" y="-0.5" width="1" height="1" /></g>
<g transform="translate(159 127) rotate(213) scale(15 22)"><rect fill="#ffc0a2" fill-opacity="0.501961" x="-0.5" y="-0.5" width="1" height="1" /></g>
<polygon fill="#1a4f74" fill-opacity="0.501961" points="82.245509,51.018793,68.132138,100.486404,88.248355,87.548376,111.229026,92.345781" />
<g transform="translate(38.821192 104.911699) rotate(198.477729) scale(37.841553 18.891085)"><ellipse fill="#64675b" fill-opacity="0.501961" cx="0" cy="0" rx="1" ry="1" /></g>
<polygon fill="#9db9d5" fill-opacity="0.501961" points="168.024311,90.483108,204.522160,138.612712,187.857693,102.854067,135.493849,55.622444" />
<g transform="translate(227.719902 112.086288) rotate(364.658291) scale(34.746765 14.413011)"><ellipse fill="#243e33" fill-opacity="0.501961" cx="0" cy="0" rx="1" ry="1" /></g>
<polygon fill="#382e23" fill-opacity="0.501961" points="262.289761,147.612718,251.685551,168.020054,188.598741,153.537155,204.048342,137.562077" />
<polygon fill="#d9cfc6" fill-opacity="0.501961" points="86.142732,100.543144,122.583015,76.283840,110.742639,39.150171,109.872299,104.215209" />
<polygon fill="#d89784" fill-opacity="0.501961" points="105,13 114,37 76,40" />
<ellipse fill="#252925" fill-opacity="0.501961" cx="118" cy="165" rx="35" ry="35" />
<g transform="translate(24.686203 4.031245) rotate(142.922536) scale(25.879921 18.104253)"><ellipse fill="#ffffff" fill-opacity="0.501961" cx="0" cy="0" rx="1" ry="1" /></g>
<g transform="translate(138.578593 68.487787) rotate(27.544992) scale(23.829565 9.935943)"><ellipse fill="#4488b5" fill-opacity="0.501961" cx="0" cy="0" rx="1" ry="1" /></g>
<polygon fill="#d8d1be" fill-opacity="0.501961" points="183,153 169,168 176,138" />
<polygon fill="#4e4f40" fill-opacity="0.501961" points="245,64 178,94 149,65" />
<rect fill="#181200" fill-opacity="0.501961" x="179" y="119" width="8" height="26" />
<g transform="translate(71.616294 121.977236) rotate(115.102298) scale(3.654093 22.901301)"><ellipse fill="#a1a5a2" fill-opacity="0.501961" cx="0" cy="0" rx="1" ry="1" /></g>
<polygon fill="#333d30" fill-opacity="0.501961" points="54,52 23,44 42,9" />
<g transform="translate(1.538610 133.416466) rotate(291.349912) scale(22.926372 87.512612)"><ellipse fill="#b5bac0" fill-opacity="0.501961" cx="0" cy="0" rx="1" ry="1" /></g>
</g>
</svg>