<svg xmlns="http://www.w3.org/2000/svg" version="1.1" width="1291" height="1806">
<rect x="0" y="0" width="1291" height="1806" fill="#2f5a35" />
<g transform="scale(7.054688) translate(0.5 0.5)">
<g transform="translate(108.976829 83.783781) rotate(15.090824) scale(182.000000 133.261144)"><ellipse fill="#ffedff" fill-opacity="0.501961" cx="0" cy="0" rx="1" ry="1" /></g>
<ellipse fill="#598782" fill-opacity="0.501961" cx="123" cy="215" rx="127" ry="127" />
<g transform="translate(77.794573 13.617963) rotate(-19.688096) scale(182.000000 38.577202)"><ellipse fill="#fffffe" fill-opacity="0.501961" cx="0" cy="0" rx="1" ry="1" /></g>
<rect fill="#00001f" fill-opacity="0.501961" x="103" y="93" width="36" height="77" />
<ellipse fill="#dcddea" fill-opacity="0.501961" cx="54" cy="132" rx="51" ry="37" />
<g transform="translate(170.746158 112.302308) rotate(198.478886) scale(15.456707 27.443482)"><ellipse fill="#1a0846" fill-opacity="0.501961" cx="0" cy="0" rx="1" ry="1" /></g>
<g transform="translate(150.733131 58.506609) rotate(285.866192) scale(31.415213 21.147505)"><ellipse fill="#efd5d0" fill-opacity="0.501961" cx="0" cy="0" rx="1" ry="1" /></g>
<rect fill="#e2f1ff" fill-opacity="0.501961" x="38" y="150" width="32" height="35" />
<g transform="translate(66.143551 228.747625) rotate(169.164462) scale(182.000000 50.433888)"><ellipse fill="#5d9570" fill-opacity="0.501961" cx="0" cy="0" rx="1" ry="1" /></g>
<g transform="translate(109.542973 0.878971) rotate(357.374852) scale(94.126840 15.598480)"><ellipse fill="#fffffe" fill-opacity="0.501961" cx="0" cy="0" rx="1" ry="1" /></g>
<ellipse fill="#12000e" fill-opacity="0.501961" cx="68" cy="88" rx="8" ry="14" />
<g transform="translate(117.682761 151.454771) rotate(78.407518) scale(20.273457 16.370382)"><ellipse fill="#00004e" fill-opacity="0.501961" cx="0" cy="0" rx="1" ry="1" /></g>
<polygon fill="#3e324f" fill-opacity="0.501961" points="37,120 18,130 63,145" />
<rect fill="#b8acb1" fill-opacity="0.501961" x="37" y="25" width="114" height="51" />
<polygon fill="#3a3b54" fill-opacity="0.501961" points="147.125696,77.139642,112.328983,86.909326,103.532428,63.753372,120.733563,70.535433" />
<polygon fill="#000015" fill-opacity="0.501961" points="117.932414,86.522462,106.865497,107.707812,89.481113,108.428090,91.626743,100.051338" />
<polygon fill="#b3e29d" fill-opacity="0.501961" points="130,174 168,143 140,129" />
<g transform="translate(114 197) rotate(-6) scale(8 49)"><rect fill="#f5c2d5" fill-opacity="0.501961" x="-0.5" y="-0.5" width="1" height="1" /></g>
<rect fill="#599171" fill-opacity="0.501961" x="0" y="152" width="38" height="104" />
<polygon fill="#f4e0d3" fill-opacity="0.501961" points="-16,68 20,-16 60,84" />
<polygon fill="#c6c9ed" fill-opacity="0.501961" points="14.208071,97.264087,126.772905,125.361724,125.558267,131.577354,16.050799,112.517059" />
<ellipse fill="#ffffb9" fill-opacity="0.501961" cx="14" cy="145" rx="35" ry="7" />
<polygon fill="#00001c" fill-opacity="0.501961" points="133.800115,154.352717,142.132873,105.035990,124.623758,131.175240,120.072052,183.447660" />
<polygon fill="#000918" fill-opacity="0.501961" points="174,144 155,120 180,117" />
<polygon fill="#588e70" fill-opacity="0.501961" points="78.991915,138.357029,74.316501,102.595397,118.656476,225.394774,49.491134,245.114625" />
<rect fill="#ffffc6" fill-opacity="0.501961" x="64" y="139" width="31" height="10" />
<polygon fill="#251029" fill-opacity="0.501961" points="44.520086,207.390020,56.822079,186.948732,59.931517,196.531535,45.022435,224.528990" />
<polygon fill="#d4bed0" fill-opacity="0.501961" points="141.812665,102.424517,129.976668,84.013147,138.905013,81.285260,171.286728,115.079137" />
<g transform="translate(95.218133 43.985550) rotate(291.222257) scale(8.605058 5.792662)"><ellipse fill="#59404a" fill-opacity="0.501961" cx="0" cy="0" rx="1" ry="1" /></g>
<rect fill="#001251" fill-opacity="0.501961" x="162" y="27" width="21" height="6" />
<polygon fill="#545091" fill-opacity="0.501961" points="29,81 45,98 -16,95" />
<polygon fill="#c0d9ff" fill-opacity="0.501961" points="63,95 27,101 72,158" />
<rect fill="#ffffff" fill-opacity="0.501961" x="181" y="98" width="2" height="34" />
<rect fill="#eef8ff" fill-opacity="0.501961" x="57" y="157" width="9" height="31" />
<polygon fill="#fff5fa" fill-opacity="0.501961" points="80,128 105,114 91,104" />
<polygon fill="#564d60" fill-opacity="0.501961" points="77.908665,80.021015,75.559803,94.916867,72.963185,51.949372,59.294866,59.854380" />
<polygon fill="#000000" fill-opacity="0.501961" points="123,115 115,123 95,98" />
<ellipse fill="#000000" fill-opacity="0.501961" cx="30" cy="168" rx="5" ry="5" />
<g transform="translate(37.057939 240.138847) rotate(78.093060) scale(1.206862 182.000000)"><ellipse fill="#6198e2" fill-opacity="0.501961" cx="0" cy="0" rx="1" ry="1" /></g>
<rect fill="#ffffaf" fill-opacity="0.501961" x="136" y="138" width="35" height="6" />
</g>
</svg>